<mxfile host="app.diagrams.net" agent="Mozilla/5.0 (Windows NT 10.0; Win64; x64) AppleWebKit/537.36 (KHTML, like Gecko) Chrome/135.0.0.0 Safari/537.36" version="26.2.12">
  <diagram name="Page-1" id="UvayJOhDp_2XJHUnLImF">
    <mxGraphModel dx="2278" dy="1844" grid="1" gridSize="14" guides="1" tooltips="1" connect="1" arrows="1" fold="1" page="1" pageScale="1" pageWidth="850" pageHeight="1100" background="#ffffff" math="0" shadow="0">
      <root>
        <mxCell id="0" />
        <mxCell id="1" parent="0" />
        <mxCell id="0UQdeQTAG1QFOa5I_MIp-1" value="Bắt đầu&amp;nbsp;" style="ellipse;whiteSpace=wrap;html=1;fontSize=16;fontFamily=Times New Roman;" parent="1" vertex="1">
          <mxGeometry x="50" y="-10" width="120" height="80" as="geometry" />
        </mxCell>
        <mxCell id="0UQdeQTAG1QFOa5I_MIp-2" value="Đọc dữ liệu từ cảm biến" style="rounded=0;whiteSpace=wrap;html=1;fontSize=16;fontFamily=Times New Roman;" parent="1" vertex="1">
          <mxGeometry x="50" y="120" width="120" height="60" as="geometry" />
        </mxCell>
        <mxCell id="0UQdeQTAG1QFOa5I_MIp-3" value="Khoảng cách phía&amp;nbsp;&lt;div&gt;trước nhỏ hơn 30&amp;nbsp;&lt;/div&gt;" style="rhombus;whiteSpace=wrap;html=1;fontSize=16;fontFamily=Times New Roman;" parent="1" vertex="1">
          <mxGeometry x="27.5" y="230" width="165" height="100" as="geometry" />
        </mxCell>
        <mxCell id="0UQdeQTAG1QFOa5I_MIp-4" value="Tiếp tục di chuyển" style="rounded=0;whiteSpace=wrap;html=1;fontSize=16;fontFamily=Times New Roman;" parent="1" vertex="1">
          <mxGeometry x="240" y="250" width="120" height="60" as="geometry" />
        </mxCell>
        <mxCell id="0UQdeQTAG1QFOa5I_MIp-5" value="Xe dừng lại" style="rounded=0;whiteSpace=wrap;html=1;fontSize=16;fontFamily=Times New Roman;" parent="1" vertex="1">
          <mxGeometry x="50" y="370" width="120" height="60" as="geometry" />
        </mxCell>
        <mxCell id="0UQdeQTAG1QFOa5I_MIp-6" value="Quay góc phải" style="rounded=0;whiteSpace=wrap;html=1;fontSize=16;fontFamily=Times New Roman;" parent="1" vertex="1">
          <mxGeometry x="-190" y="370" width="120" height="60" as="geometry" />
        </mxCell>
        <mxCell id="0UQdeQTAG1QFOa5I_MIp-7" value="Quay góc trái" style="rounded=0;whiteSpace=wrap;html=1;fontSize=16;fontFamily=Times New Roman;" parent="1" vertex="1">
          <mxGeometry x="-190" y="520" width="120" height="60" as="geometry" />
        </mxCell>
        <mxCell id="0UQdeQTAG1QFOa5I_MIp-8" value="2 khoảng cách đều &amp;lt;30" style="rhombus;whiteSpace=wrap;html=1;fontSize=16;fontFamily=Times New Roman;" parent="1" vertex="1">
          <mxGeometry x="-220" y="640" width="180" height="110" as="geometry" />
        </mxCell>
        <mxCell id="0UQdeQTAG1QFOa5I_MIp-9" value="Xe dừng lại" style="rounded=0;whiteSpace=wrap;html=1;fontSize=16;fontFamily=Times New Roman;" parent="1" vertex="1">
          <mxGeometry y="665" width="120" height="60" as="geometry" />
        </mxCell>
        <mxCell id="0UQdeQTAG1QFOa5I_MIp-10" value="Chế độ thủ công" style="rounded=0;whiteSpace=wrap;html=1;fontSize=16;fontFamily=Times New Roman;" parent="1" vertex="1">
          <mxGeometry x="192.5" y="665" width="120" height="60" as="geometry" />
        </mxCell>
        <mxCell id="0UQdeQTAG1QFOa5I_MIp-12" value="Khoảng cách&lt;div&gt;&amp;nbsp;phải &amp;gt;= trái&lt;/div&gt;" style="rhombus;whiteSpace=wrap;html=1;fontSize=16;fontFamily=Times New Roman;" parent="1" vertex="1">
          <mxGeometry x="-207.5" y="820" width="155" height="110" as="geometry" />
        </mxCell>
        <mxCell id="0UQdeQTAG1QFOa5I_MIp-13" value="Xe vượt phải" style="rounded=0;whiteSpace=wrap;html=1;fontSize=16;fontFamily=Times New Roman;" parent="1" vertex="1">
          <mxGeometry x="10" y="845" width="120" height="60" as="geometry" />
        </mxCell>
        <mxCell id="0UQdeQTAG1QFOa5I_MIp-14" value="Tiếp tục di chuyển" style="rounded=0;whiteSpace=wrap;html=1;fontSize=16;fontFamily=Times New Roman;" parent="1" vertex="1">
          <mxGeometry x="220" y="845" width="120" height="60" as="geometry" />
        </mxCell>
        <mxCell id="0UQdeQTAG1QFOa5I_MIp-15" value="Xe vượt trái" style="rounded=0;whiteSpace=wrap;html=1;fontSize=16;fontFamily=Times New Roman;" parent="1" vertex="1">
          <mxGeometry x="10" y="960" width="120" height="60" as="geometry" />
        </mxCell>
        <mxCell id="0UQdeQTAG1QFOa5I_MIp-16" value="Tiếp tục di chuyển" style="rounded=0;whiteSpace=wrap;html=1;fontSize=16;fontFamily=Times New Roman;" parent="1" vertex="1">
          <mxGeometry x="220" y="960" width="120" height="60" as="geometry" />
        </mxCell>
        <mxCell id="0UQdeQTAG1QFOa5I_MIp-17" value="" style="endArrow=classic;html=1;rounded=0;entryX=0.5;entryY=0;entryDx=0;entryDy=0;exitX=0.5;exitY=1;exitDx=0;exitDy=0;fontSize=16;fontFamily=Times New Roman;" parent="1" source="0UQdeQTAG1QFOa5I_MIp-1" target="0UQdeQTAG1QFOa5I_MIp-2" edge="1">
          <mxGeometry width="50" height="50" relative="1" as="geometry">
            <mxPoint y="140" as="sourcePoint" />
            <mxPoint x="50" y="90" as="targetPoint" />
          </mxGeometry>
        </mxCell>
        <mxCell id="0UQdeQTAG1QFOa5I_MIp-20" value="" style="endArrow=classic;html=1;rounded=0;exitX=0.5;exitY=1;exitDx=0;exitDy=0;entryX=0.5;entryY=0;entryDx=0;entryDy=0;fontSize=16;fontFamily=Times New Roman;" parent="1" source="0UQdeQTAG1QFOa5I_MIp-2" target="0UQdeQTAG1QFOa5I_MIp-3" edge="1">
          <mxGeometry width="50" height="50" relative="1" as="geometry">
            <mxPoint x="70" y="230" as="sourcePoint" />
            <mxPoint x="110" y="220" as="targetPoint" />
          </mxGeometry>
        </mxCell>
        <mxCell id="0UQdeQTAG1QFOa5I_MIp-21" value="" style="endArrow=classic;html=1;rounded=0;entryX=0.5;entryY=0;entryDx=0;entryDy=0;exitX=0.5;exitY=1;exitDx=0;exitDy=0;fontSize=16;fontFamily=Times New Roman;" parent="1" source="0UQdeQTAG1QFOa5I_MIp-3" target="0UQdeQTAG1QFOa5I_MIp-5" edge="1">
          <mxGeometry width="50" height="50" relative="1" as="geometry">
            <mxPoint y="340" as="sourcePoint" />
            <mxPoint x="50" y="290" as="targetPoint" />
          </mxGeometry>
        </mxCell>
        <mxCell id="0UQdeQTAG1QFOa5I_MIp-24" value="" style="endArrow=classic;html=1;rounded=0;entryX=0.5;entryY=0;entryDx=0;entryDy=0;exitX=0.5;exitY=1;exitDx=0;exitDy=0;fontSize=16;fontFamily=Times New Roman;" parent="1" source="0UQdeQTAG1QFOa5I_MIp-6" target="0UQdeQTAG1QFOa5I_MIp-7" edge="1">
          <mxGeometry width="50" height="50" relative="1" as="geometry">
            <mxPoint x="-160" y="520" as="sourcePoint" />
            <mxPoint x="-110" y="470" as="targetPoint" />
          </mxGeometry>
        </mxCell>
        <mxCell id="0UQdeQTAG1QFOa5I_MIp-26" value="" style="endArrow=classic;html=1;rounded=0;entryX=0.5;entryY=0;entryDx=0;entryDy=0;exitX=0.5;exitY=1;exitDx=0;exitDy=0;fontSize=16;fontFamily=Times New Roman;" parent="1" source="0UQdeQTAG1QFOa5I_MIp-7" target="0UQdeQTAG1QFOa5I_MIp-8" edge="1">
          <mxGeometry width="50" height="50" relative="1" as="geometry">
            <mxPoint x="-160" y="630" as="sourcePoint" />
            <mxPoint x="-110" y="580" as="targetPoint" />
          </mxGeometry>
        </mxCell>
        <mxCell id="0UQdeQTAG1QFOa5I_MIp-27" value="" style="endArrow=classic;html=1;rounded=0;exitX=1;exitY=0.5;exitDx=0;exitDy=0;entryX=0;entryY=0.5;entryDx=0;entryDy=0;fontSize=16;fontFamily=Times New Roman;" parent="1" source="0UQdeQTAG1QFOa5I_MIp-8" target="0UQdeQTAG1QFOa5I_MIp-9" edge="1">
          <mxGeometry width="50" height="50" relative="1" as="geometry">
            <mxPoint x="-40" y="730" as="sourcePoint" />
            <mxPoint x="10" y="680" as="targetPoint" />
          </mxGeometry>
        </mxCell>
        <mxCell id="0UQdeQTAG1QFOa5I_MIp-28" value="" style="endArrow=classic;html=1;rounded=0;entryX=0;entryY=0.5;entryDx=0;entryDy=0;exitX=1;exitY=0.5;exitDx=0;exitDy=0;fontSize=16;fontFamily=Times New Roman;" parent="1" source="0UQdeQTAG1QFOa5I_MIp-9" edge="1">
          <mxGeometry width="50" height="50" relative="1" as="geometry">
            <mxPoint x="110" y="710" as="sourcePoint" />
            <mxPoint x="190" y="695" as="targetPoint" />
          </mxGeometry>
        </mxCell>
        <mxCell id="0UQdeQTAG1QFOa5I_MIp-30" value="" style="endArrow=classic;html=1;rounded=0;entryX=0.5;entryY=0;entryDx=0;entryDy=0;fontSize=16;fontFamily=Times New Roman;" parent="1" target="0UQdeQTAG1QFOa5I_MIp-12" edge="1">
          <mxGeometry width="50" height="50" relative="1" as="geometry">
            <mxPoint x="-130" y="750" as="sourcePoint" />
            <mxPoint x="10" y="790" as="targetPoint" />
          </mxGeometry>
        </mxCell>
        <mxCell id="0UQdeQTAG1QFOa5I_MIp-31" value="" style="endArrow=classic;html=1;rounded=0;entryX=0;entryY=0.5;entryDx=0;entryDy=0;exitX=1;exitY=0.5;exitDx=0;exitDy=0;fontSize=16;fontFamily=Times New Roman;" parent="1" source="0UQdeQTAG1QFOa5I_MIp-12" target="0UQdeQTAG1QFOa5I_MIp-13" edge="1">
          <mxGeometry width="50" height="50" relative="1" as="geometry">
            <mxPoint x="-40" y="840" as="sourcePoint" />
            <mxPoint x="10" y="790" as="targetPoint" />
          </mxGeometry>
        </mxCell>
        <mxCell id="0UQdeQTAG1QFOa5I_MIp-32" value="" style="endArrow=classic;html=1;rounded=0;exitX=1;exitY=0.5;exitDx=0;exitDy=0;fontSize=16;fontFamily=Times New Roman;" parent="1" source="0UQdeQTAG1QFOa5I_MIp-13" target="0UQdeQTAG1QFOa5I_MIp-14" edge="1">
          <mxGeometry width="50" height="50" relative="1" as="geometry">
            <mxPoint x="-40" y="840" as="sourcePoint" />
            <mxPoint x="10" y="790" as="targetPoint" />
          </mxGeometry>
        </mxCell>
        <mxCell id="0UQdeQTAG1QFOa5I_MIp-33" value="" style="endArrow=classic;html=1;rounded=0;exitX=0.5;exitY=1;exitDx=0;exitDy=0;entryX=0;entryY=0.5;entryDx=0;entryDy=0;fontSize=16;fontFamily=Times New Roman;" parent="1" source="0UQdeQTAG1QFOa5I_MIp-12" target="0UQdeQTAG1QFOa5I_MIp-15" edge="1">
          <mxGeometry width="50" height="50" relative="1" as="geometry">
            <mxPoint x="60" y="840" as="sourcePoint" />
            <mxPoint x="110" y="790" as="targetPoint" />
            <Array as="points">
              <mxPoint x="-130" y="990" />
            </Array>
          </mxGeometry>
        </mxCell>
        <mxCell id="0UQdeQTAG1QFOa5I_MIp-34" value="" style="endArrow=classic;html=1;rounded=0;entryX=0;entryY=0.5;entryDx=0;entryDy=0;exitX=1;exitY=0.5;exitDx=0;exitDy=0;fontSize=16;fontFamily=Times New Roman;" parent="1" source="0UQdeQTAG1QFOa5I_MIp-15" target="0UQdeQTAG1QFOa5I_MIp-16" edge="1">
          <mxGeometry width="50" height="50" relative="1" as="geometry">
            <mxPoint x="60" y="840" as="sourcePoint" />
            <mxPoint x="110" y="790" as="targetPoint" />
          </mxGeometry>
        </mxCell>
        <mxCell id="0UQdeQTAG1QFOa5I_MIp-35" value="" style="endArrow=classic;html=1;rounded=0;entryX=0;entryY=0.5;entryDx=0;entryDy=0;exitX=1;exitY=0.5;exitDx=0;exitDy=0;fontSize=16;fontFamily=Times New Roman;" parent="1" source="0UQdeQTAG1QFOa5I_MIp-3" target="0UQdeQTAG1QFOa5I_MIp-4" edge="1">
          <mxGeometry width="50" height="50" relative="1" as="geometry">
            <mxPoint x="60" y="400" as="sourcePoint" />
            <mxPoint x="110" y="350" as="targetPoint" />
          </mxGeometry>
        </mxCell>
        <mxCell id="0UQdeQTAG1QFOa5I_MIp-36" value="" style="endArrow=classic;html=1;rounded=0;exitX=1;exitY=0.75;exitDx=0;exitDy=0;fontSize=16;fontFamily=Times New Roman;" parent="1" source="0UQdeQTAG1QFOa5I_MIp-16" edge="1">
          <mxGeometry width="50" height="50" relative="1" as="geometry">
            <mxPoint x="60" y="1000" as="sourcePoint" />
            <mxPoint x="110" y="200" as="targetPoint" />
            <Array as="points">
              <mxPoint x="670" y="1005" />
              <mxPoint x="670" y="200" />
            </Array>
          </mxGeometry>
        </mxCell>
        <mxCell id="0UQdeQTAG1QFOa5I_MIp-37" value="" style="endArrow=classic;html=1;rounded=0;exitX=1;exitY=0.5;exitDx=0;exitDy=0;fontSize=16;fontFamily=Times New Roman;" parent="1" source="0UQdeQTAG1QFOa5I_MIp-4" edge="1">
          <mxGeometry width="50" height="50" relative="1" as="geometry">
            <mxPoint x="360" y="440" as="sourcePoint" />
            <mxPoint x="670" y="280" as="targetPoint" />
          </mxGeometry>
        </mxCell>
        <mxCell id="0UQdeQTAG1QFOa5I_MIp-38" value="" style="endArrow=classic;html=1;rounded=0;exitX=1;exitY=0.5;exitDx=0;exitDy=0;fontSize=16;fontFamily=Times New Roman;" parent="1" source="0UQdeQTAG1QFOa5I_MIp-14" edge="1">
          <mxGeometry width="50" height="50" relative="1" as="geometry">
            <mxPoint x="360" y="940" as="sourcePoint" />
            <mxPoint x="670" y="875" as="targetPoint" />
          </mxGeometry>
        </mxCell>
        <mxCell id="0UQdeQTAG1QFOa5I_MIp-39" value="Đ" style="text;html=1;align=center;verticalAlign=middle;resizable=0;points=[];autosize=1;strokeColor=none;fillColor=none;fontSize=16;fontFamily=Times New Roman;" parent="1" vertex="1">
          <mxGeometry x="104" y="331" width="42" height="28" as="geometry" />
        </mxCell>
        <mxCell id="0UQdeQTAG1QFOa5I_MIp-40" value="Đ" style="text;html=1;align=center;verticalAlign=middle;resizable=0;points=[];autosize=1;strokeColor=none;fillColor=none;fontSize=16;fontFamily=Times New Roman;" parent="1" vertex="1">
          <mxGeometry x="-46" y="666" width="42" height="28" as="geometry" />
        </mxCell>
        <mxCell id="0UQdeQTAG1QFOa5I_MIp-41" value="S" style="text;html=1;align=center;verticalAlign=middle;whiteSpace=wrap;rounded=0;fontSize=16;fontFamily=Times New Roman;" parent="1" vertex="1">
          <mxGeometry x="180" y="250" width="60" height="30" as="geometry" />
        </mxCell>
        <mxCell id="0UQdeQTAG1QFOa5I_MIp-42" value="Đ" style="text;html=1;align=center;verticalAlign=middle;whiteSpace=wrap;rounded=0;fontSize=16;fontFamily=Times New Roman;" parent="1" vertex="1">
          <mxGeometry x="-60" y="850" width="60" height="30" as="geometry" />
        </mxCell>
        <mxCell id="0UQdeQTAG1QFOa5I_MIp-43" value="S" style="text;html=1;align=center;verticalAlign=middle;whiteSpace=wrap;rounded=0;fontSize=16;fontFamily=Times New Roman;" parent="1" vertex="1">
          <mxGeometry x="-110" y="960" width="60" height="30" as="geometry" />
        </mxCell>
        <mxCell id="XKDjrkmCDKXZvp9vbnrw-1" value="" style="endArrow=classic;html=1;rounded=0;exitX=0;exitY=0.5;exitDx=0;exitDy=0;entryX=1;entryY=0.5;entryDx=0;entryDy=0;fontFamily=Times New Roman;fontSize=16;" parent="1" source="0UQdeQTAG1QFOa5I_MIp-5" target="0UQdeQTAG1QFOa5I_MIp-6" edge="1">
          <mxGeometry width="50" height="50" relative="1" as="geometry">
            <mxPoint x="-10" y="370" as="sourcePoint" />
            <mxPoint x="40" y="320" as="targetPoint" />
          </mxGeometry>
        </mxCell>
        <mxCell id="XKDjrkmCDKXZvp9vbnrw-2" value="S" style="text;html=1;align=center;verticalAlign=middle;resizable=0;points=[];autosize=1;strokeColor=none;fillColor=none;fontSize=16;fontFamily=Times New Roman;" parent="1" vertex="1">
          <mxGeometry x="-136" y="771" width="42" height="28" as="geometry" />
        </mxCell>
      </root>
    </mxGraphModel>
  </diagram>
</mxfile>
